<?xml version="1.0" standalone="no"?>
<!DOCTYPE svg PUBLIC "-//W3C//DTD SVG 20010904//EN"
 "http://www.w3.org/TR/2001/REC-SVG-20010904/DTD/svg10.dtd">
<svg version="1.0" xmlns="http://www.w3.org/2000/svg"
 width="355.000000pt" height="355.000000pt" viewBox="0 0 355.000000 355.000000"
 preserveAspectRatio="xMidYMid meet">
<metadata>
Created by potrace 1.14, written by Peter Selinger 2001-2017
</metadata>
<g transform="translate(0.000000,355.000000) scale(0.100000,-0.100000)"
fill="#000000" stroke="none">
<path d="M1305 3540 c-623 -20 -832 -80 -1038 -299 -159 -170 -219 -359 -247
-786 -13 -199 -13 -1168 0 -1370 12 -185 33 -333 60 -441 67 -260 263 -469
520 -554 82 -26 258 -56 420 -70 198 -17 990 -24 1282 -11 596 26 792 86 989
299 148 160 205 325 240 697 5 61 13 331 16 600 14 1173 -45 1471 -334 1710
-163 134 -350 189 -733 214 -210 14 -884 21 -1175 11z m667 -1100 c44 -13 58
-34 58 -88 0 -60 -25 -84 -91 -90 -45 -3 -59 0 -81 18 -24 18 -28 29 -28 69 0
55 14 78 55 90 41 12 44 12 87 1z m-582 -535 l0 -385 50 0 50 0 0 -165 0 -165
-70 0 -69 0 -3 98 -3 97 -272 3 -273 2 0 -100 0 -100 -75 0 -75 0 0 164 0 165
38 3 c33 3 39 8 59 48 40 80 53 199 53 471 l0 249 295 0 295 0 0 -385z m590
205 c0 -5 -36 -136 -80 -291 -44 -154 -80 -285 -80 -290 0 -19 24 -7 122 61
56 39 104 70 107 70 8 0 75 -99 70 -104 -39 -36 -266 -176 -292 -181 -44 -9
-97 8 -126 39 -41 44 -38 76 33 324 36 128 66 236 66 242 0 6 -37 10 -96 10
l-96 0 6 28 c4 15 12 44 17 65 l10 37 169 0 c105 0 170 -4 170 -10z m820 -355
l0 -365 -75 0 -75 0 0 130 0 130 -65 0 -66 0 -85 -130 -85 -130 -79 0 c-44 0
-80 2 -80 5 0 3 37 60 81 127 45 67 84 129 86 138 3 12 -5 21 -27 30 -65 27
-120 122 -120 208 0 50 30 117 68 155 61 59 91 66 320 66 l202 1 0 -365z"/>
<path d="M947 1953 c-6 -194 -19 -292 -51 -382 -9 -24 -16 -45 -16 -47 0 -3
80 -3 178 -2 l177 3 3 313 2 312 -143 0 -144 0 -6 -197z"/>
<path d="M2407 1979 c-23 -14 -47 -62 -47 -96 0 -15 9 -42 20 -60 24 -40 67
-53 183 -53 l87 0 0 110 0 110 -112 0 c-62 0 -121 -5 -131 -11z"/>
</g>
</svg>
